<svg width="145" height="116" viewBox="0 0 145 116" fill="none" xmlns="http://www.w3.org/2000/svg">
<g clip-path="url(#clip0_14_447)" filter="url(#filter0_d_14_447)">
<path d="M34.036 0.17321C33.6235 0.3106 32.984 0.669006 32.5476 1.00352C31.0951 2.11459 29.1286 4.69511 27.4071 7.74158L27.0664 8.35087L26.7556 8.38671C26.5823 8.4106 25.865 8.47631 25.1597 8.54202C20.581 8.95419 17.8554 9.04976 17.2875 8.81082C17.0066 8.69135 16.5882 8.36282 14.8727 6.88737C14.0359 6.17056 12.9241 5.22078 12.3921 4.77875C8.99103 1.92941 6.89897 0.657066 6.02031 0.901978C5.74535 0.973656 5.26119 1.48737 5.05796 1.92343C4.77702 2.51481 4.7053 2.92697 4.67541 4.1814C4.62161 6.32587 4.9683 9.03781 6.09801 15.2084L6.5224 17.538L6.15778 18.0458C5.42855 19.0613 4.66943 20.8115 4.36459 22.1913C4.11354 23.3382 4.04779 24.0849 4.07768 25.4469C4.10757 26.8686 4.20918 27.5854 4.56782 28.9473C5.47039 32.394 7.70591 36.0318 11.0652 39.5144L11.9259 40.4104L12.3204 41.3064C12.7747 42.3458 13.0974 43.2717 13.2947 44.1139C13.5457 45.1772 13.5816 45.7088 13.5278 47.3097C13.4322 49.8544 13.486 50.6728 13.8327 52.0347C14.0419 52.865 14.4722 54.0657 14.9265 55.1051C15.3688 56.1086 17.0186 59.406 18.5966 62.4225C21.8781 68.6947 22.972 71.2155 22.966 72.5177C22.966 72.7626 22.966 73.8378 22.972 74.9071C23.0138 85.5995 22.8225 90.3006 22.2308 93.1858C21.9379 94.6194 21.7586 94.942 21.0652 95.3243C19.5171 96.1785 18.3156 97.4628 17.8912 98.7172C17.6163 99.5356 17.7239 100.33 18.208 101.029C18.4292 101.352 19.0508 101.859 19.5769 102.152L20.0012 102.385L20.0371 102.821C20.1088 103.783 20.4794 104.78 20.9576 105.312C21.3162 105.712 21.5195 105.832 22.3503 106.166C25.0341 107.235 28.0049 107.313 29.9116 106.357C30.5153 106.059 32.0336 104.912 32.7449 104.225C33.498 103.49 34.1495 102.516 34.7532 101.214L35.0043 100.671L36.8214 100.981C37.8196 101.154 38.6325 101.316 38.6265 101.346C38.6206 101.375 38.5488 101.602 38.4652 101.853C38.0288 103.15 38.1245 104.44 38.7401 105.479C39.0031 105.927 39.7323 106.656 40.2763 107.014C41.412 107.761 42.6732 107.982 45.4227 107.922C47.0546 107.886 48.0587 107.803 49.9476 107.552C52.99 107.14 56.7617 106.363 60.6529 105.354L62.1114 104.971L62.5418 105.204C62.7809 105.33 63.3009 105.539 63.6894 105.664C64.9028 106.071 65.8114 106.208 67.222 106.208C69.2663 106.208 71.3404 105.73 73.552 104.75L74.4546 104.35L75.3213 104.589C81.1731 106.19 87.3656 106.232 93.1635 104.715C98.7404 103.251 103.899 100.36 108.095 96.3458C110.611 93.9385 112.405 91.6925 114.162 88.7356C114.7 87.8276 115.776 85.6951 115.931 85.2113C116.021 84.9425 116.266 84.6737 118.34 82.5829C125.453 75.3969 130.749 69.1248 134.706 63.1991C138.113 58.0918 140.091 53.7909 140.773 50.0276C140.898 49.3287 140.91 49.0779 140.904 47.6084C140.904 46.1031 140.886 45.894 140.743 45.0995C140.659 44.6217 140.492 43.8989 140.378 43.4867C138.782 37.7163 133.821 33.4513 127.581 32.4836C126.577 32.3283 124.299 32.2984 123.397 32.4239C120.486 32.836 118.017 33.8874 115.835 35.6376C115.19 36.1513 114 37.34 113.492 37.9732L113.098 38.463L112.811 38.0927C112.351 37.5073 111.018 36.1692 110.378 35.6555C108.25 33.9411 105.818 32.8779 103.074 32.4597C102.076 32.3044 99.7207 32.3044 98.7404 32.4537C96.9053 32.7405 95.4648 33.1825 93.8689 33.959C90.1271 35.781 87.2938 38.9588 86.0505 42.74C85.2137 45.2787 85.0284 47.7517 85.4767 50.2964C86.7977 57.8469 94.1498 68.6588 106.553 81.2987L107.88 82.6487L107.461 83.4371C103.666 90.677 96.8157 95.6827 88.818 97.0626C87.2161 97.3374 86.4749 97.3971 84.4546 97.3971C82.4223 97.3971 81.9262 97.3613 80.2705 97.0925C78.6207 96.8296 76.3195 96.1905 74.9208 95.617L74.5621 95.4677L74.5442 94.046C74.5382 93.2635 74.5084 92.6064 74.4785 92.5885C74.4486 92.5706 74.5203 92.248 74.6279 91.8717C76.0266 87.069 77.0069 81.0657 77.2878 75.606C77.3775 73.8318 77.3237 69.4832 77.1981 67.9779C76.4271 59.1013 73.8389 52.2199 69.2244 46.802C68.5729 46.0433 66.7199 44.1856 66.0146 43.6002C62.3027 40.494 58.0648 38.3018 52.8645 36.8144L51.8484 36.5217L51.0414 35.9602C48.3516 34.1024 46.6182 32.6329 46.2835 31.9042C45.895 31.0739 45.6379 30.6677 44.9266 29.7836C43.5698 28.1051 41.5614 26.319 40.1687 25.5484L39.7861 25.3394L39.3857 24.2044C38.2739 21.0743 37.2637 18.906 36.5405 18.1055L36.2775 17.8128L36.4568 16.654C37.993 6.92918 37.6283 0.89003 35.4586 0.155296C35.0999 0.0298538 34.4185 0.0417938 34.036 0.17321ZM102.685 38.7856C103.546 38.9887 103.982 39.144 104.748 39.5144C106.302 40.267 107.545 41.3602 108.483 42.7998C109.422 44.2394 109.972 46.1031 109.978 47.8473C109.984 49.1913 110.88 50.3621 112.243 50.8042C112.703 50.9535 113.534 50.9416 114.042 50.7803C114.999 50.4816 115.782 49.6931 116.081 48.7493C116.158 48.4805 116.218 48.0683 116.254 47.459C116.397 44.9323 117.234 43.0387 118.974 41.3064C120.109 40.1655 121.161 39.5144 122.614 39.0365C123.672 38.69 124.15 38.6183 125.459 38.6183C126.744 38.6183 127.234 38.69 128.268 39.0186C131.843 40.1475 134.443 43.4628 134.658 47.1604C134.754 48.8807 134.395 50.5593 133.445 52.8053C131.382 57.6617 126.421 64.561 119.398 72.3385C117.611 74.3097 113.176 78.969 113.08 78.969C112.966 78.969 108.047 73.8079 106.206 71.771C97.7063 62.3389 92.7152 54.6869 91.6752 49.5139C91.5019 48.6298 91.4899 47.0469 91.6513 46.1748C92.3447 42.4652 95.2496 39.4905 98.9018 38.7677C99.7745 38.5944 99.7625 38.5944 100.952 38.6183C101.867 38.6363 102.165 38.6661 102.685 38.7856Z" fill="black"/>
</g>
<defs>
<filter id="filter0_d_14_447" x="0" y="0" width="145" height="116" filterUnits="userSpaceOnUse" color-interpolation-filters="sRGB">
<feFlood flood-opacity="0" result="BackgroundImageFix"/>
<feColorMatrix in="SourceAlpha" type="matrix" values="0 0 0 0 0 0 0 0 0 0 0 0 0 0 0 0 0 0 127 0" result="hardAlpha"/>
<feOffset dy="4"/>
<feGaussianBlur stdDeviation="2"/>
<feComposite in2="hardAlpha" operator="out"/>
<feColorMatrix type="matrix" values="0 0 0 0 0 0 0 0 0 0 0 0 0 0 0 0 0 0 0.25 0"/>
<feBlend mode="normal" in2="BackgroundImageFix" result="effect1_dropShadow_14_447"/>
<feBlend mode="normal" in="SourceGraphic" in2="effect1_dropShadow_14_447" result="shape"/>
</filter>
<clipPath id="clip0_14_447">
<rect width="137" height="108" fill="white" transform="translate(4)"/>
</clipPath>
</defs>
</svg>
