<svg width="74" height="79" viewBox="0 0 74 79" fill="none" xmlns="http://www.w3.org/2000/svg">
<g filter="url(#filter0_d_403_17)">
<path d="M12.2838 0.863999C13.7078 0.863999 14.8998 0.999999 15.8598 1.272C16.8358 1.544 17.5638 1.992 18.0438 2.616C18.5398 3.24 18.7878 4.072 18.7878 5.112C18.7878 5.784 18.6598 6.384 18.4038 6.912C18.1638 7.424 17.7958 7.856 17.2998 8.208C16.8198 8.544 16.2278 8.776 15.5238 8.904V9.024C16.2438 9.136 16.8918 9.344 17.4678 9.648C18.0598 9.952 18.5238 10.384 18.8598 10.944C19.1958 11.504 19.3638 12.232 19.3638 13.128C19.3638 14.168 19.1238 15.056 18.6438 15.792C18.1638 16.512 17.4758 17.064 16.5798 17.448C15.6998 17.816 14.6438 18 13.4118 18H7.38785V0.863999H12.2838ZM12.7158 8.16C14.1878 8.16 15.1958 7.928 15.7398 7.464C16.2838 6.984 16.5558 6.28 16.5558 5.352C16.5558 4.408 16.2198 3.736 15.5478 3.336C14.8918 2.92 13.8358 2.712 12.3798 2.712H9.54785V8.16H12.7158ZM9.54785 9.96V16.176H13.0038C14.5238 16.176 15.5798 15.88 16.1718 15.288C16.7638 14.696 17.0598 13.92 17.0598 12.96C17.0598 12.352 16.9238 11.824 16.6518 11.376C16.3958 10.928 15.9558 10.584 15.3318 10.344C14.7238 10.088 13.8918 9.96 12.8358 9.96H9.54785ZM45.1732 11.544C45.1732 12.616 45.0292 13.568 44.7412 14.4C44.4692 15.216 44.0692 15.912 43.5412 16.488C43.0292 17.064 42.3972 17.504 41.6452 17.808C40.9092 18.096 40.0852 18.24 39.1732 18.24C38.3252 18.24 37.5412 18.096 36.8212 17.808C36.1012 17.504 35.4772 17.064 34.9492 16.488C34.4212 15.912 34.0052 15.216 33.7012 14.4C33.4132 13.568 33.2692 12.616 33.2692 11.544C33.2692 10.12 33.5092 8.92 33.9892 7.944C34.4692 6.952 35.1572 6.2 36.0532 5.688C36.9492 5.16 38.0132 4.896 39.2452 4.896C40.4132 4.896 41.4372 5.16 42.3172 5.688C43.2132 6.2 43.9092 6.952 44.4052 7.944C44.9172 8.92 45.1732 10.12 45.1732 11.544ZM35.4532 11.544C35.4532 12.552 35.5812 13.432 35.8372 14.184C36.1092 14.92 36.5252 15.488 37.0852 15.888C37.6452 16.288 38.3572 16.488 39.2212 16.488C40.0852 16.488 40.7972 16.288 41.3572 15.888C41.9172 15.488 42.3252 14.92 42.5812 14.184C42.8532 13.432 42.9892 12.552 42.9892 11.544C42.9892 10.52 42.8532 9.648 42.5812 8.928C42.3092 8.208 41.8932 7.656 41.3332 7.272C40.7892 6.872 40.0772 6.672 39.1972 6.672C37.8852 6.672 36.9332 7.104 36.3412 7.968C35.7492 8.832 35.4532 10.024 35.4532 11.544ZM68.4461 6.912H64.2461V18H62.1581V6.912H58.0061V5.136H68.4461V6.912ZM9.45963 26.864C10.8836 26.864 12.0756 27 13.0356 27.272C14.0116 27.544 14.7396 27.992 15.2196 28.616C15.7156 29.24 15.9636 30.072 15.9636 31.112C15.9636 31.784 15.8356 32.384 15.5796 32.912C15.3396 33.424 14.9716 33.856 14.4756 34.208C13.9956 34.544 13.4036 34.776 12.6996 34.904V35.024C13.4196 35.136 14.0676 35.344 14.6436 35.648C15.2356 35.952 15.6996 36.384 16.0356 36.944C16.3716 37.504 16.5396 38.232 16.5396 39.128C16.5396 40.168 16.2996 41.056 15.8196 41.792C15.3396 42.512 14.6516 43.064 13.7556 43.448C12.8756 43.816 11.8196 44 10.5876 44H4.56363V26.864H9.45963ZM9.89163 34.16C11.3636 34.16 12.3716 33.928 12.9156 33.464C13.4596 32.984 13.7316 32.28 13.7316 31.352C13.7316 30.408 13.3956 29.736 12.7236 29.336C12.0676 28.92 11.0116 28.712 9.55563 28.712H6.72363V34.16H9.89163ZM6.72363 35.96V42.176H10.1796C11.6996 42.176 12.7556 41.88 13.3476 41.288C13.9396 40.696 14.2356 39.92 14.2356 38.96C14.2356 38.352 14.0996 37.824 13.8276 37.376C13.5716 36.928 13.1316 36.584 12.5076 36.344C11.8996 36.088 11.0676 35.96 10.0116 35.96H6.72363ZM36.037 30.92C37.605 30.92 38.765 31.264 39.517 31.952C40.269 32.64 40.645 33.736 40.645 35.24V44H39.109L38.701 42.176H38.605C38.237 42.64 37.853 43.032 37.453 43.352C37.069 43.656 36.621 43.88 36.109 44.024C35.613 44.168 35.005 44.24 34.285 44.24C33.517 44.24 32.821 44.104 32.197 43.832C31.589 43.56 31.109 43.144 30.757 42.584C30.405 42.008 30.229 41.288 30.229 40.424C30.229 39.144 30.733 38.16 31.741 37.472C32.749 36.768 34.301 36.384 36.397 36.32L38.581 36.248V35.48C38.581 34.408 38.349 33.664 37.885 33.248C37.421 32.832 36.765 32.624 35.917 32.624C35.245 32.624 34.605 32.728 33.997 32.936C33.389 33.128 32.821 33.352 32.293 33.608L31.645 32.024C32.205 31.72 32.869 31.464 33.637 31.256C34.405 31.032 35.205 30.92 36.037 30.92ZM36.661 37.784C35.061 37.848 33.949 38.104 33.325 38.552C32.717 39 32.413 39.632 32.413 40.448C32.413 41.168 32.629 41.696 33.061 42.032C33.509 42.368 34.077 42.536 34.765 42.536C35.853 42.536 36.757 42.24 37.477 41.648C38.197 41.04 38.557 40.112 38.557 38.864V37.712L36.661 37.784ZM69.6981 31.136V44H67.8021V35.792C67.8021 35.456 67.8101 35.104 67.8261 34.736C67.8581 34.368 67.8901 34.008 67.9221 33.656H67.8501L63.6501 44H61.8741L57.7941 33.656H57.7221C57.7541 34.008 57.7701 34.368 57.7701 34.736C57.7861 35.104 57.7941 35.48 57.7941 35.864V44H55.8981V31.136H58.7061L62.7621 41.48L66.8901 31.136H69.6981ZM20.2786 70H17.6866L9.93456 61.312V70H7.77456V52.864H9.93456V61.168L17.4946 52.864H19.9426L12.5026 61.192L20.2786 70ZM44.7865 63.544C44.7865 64.616 44.6425 65.568 44.3545 66.4C44.0825 67.216 43.6825 67.912 43.1545 68.488C42.6425 69.064 42.0105 69.504 41.2585 69.808C40.5225 70.096 39.6985 70.24 38.7865 70.24C37.9385 70.24 37.1545 70.096 36.4345 69.808C35.7145 69.504 35.0905 69.064 34.5625 68.488C34.0345 67.912 33.6185 67.216 33.3145 66.4C33.0265 65.568 32.8825 64.616 32.8825 63.544C32.8825 62.12 33.1225 60.92 33.6025 59.944C34.0825 58.952 34.7705 58.2 35.6665 57.688C36.5625 57.16 37.6265 56.896 38.8585 56.896C40.0265 56.896 41.0505 57.16 41.9305 57.688C42.8265 58.2 43.5225 58.952 44.0185 59.944C44.5305 60.92 44.7865 62.12 44.7865 63.544ZM35.0665 63.544C35.0665 64.552 35.1945 65.432 35.4505 66.184C35.7225 66.92 36.1385 67.488 36.6985 67.888C37.2585 68.288 37.9705 68.488 38.8345 68.488C39.6985 68.488 40.4105 68.288 40.9705 67.888C41.5305 67.488 41.9385 66.92 42.1945 66.184C42.4665 65.432 42.6025 64.552 42.6025 63.544C42.6025 62.52 42.4665 61.648 42.1945 60.928C41.9225 60.208 41.5065 59.656 40.9465 59.272C40.4025 58.872 39.6905 58.672 38.8105 58.672C37.4985 58.672 36.5465 59.104 35.9545 59.968C35.3625 60.832 35.0665 62.024 35.0665 63.544ZM68.0594 58.912H63.8594V70H61.7714V58.912H57.6194V57.136H68.0594V58.912Z" fill="black"/>
</g>
<defs>
<filter id="filter0_d_403_17" x="0.563629" y="0.864014" width="73.1345" height="77.376" filterUnits="userSpaceOnUse" color-interpolation-filters="sRGB">
<feFlood flood-opacity="0" result="BackgroundImageFix"/>
<feColorMatrix in="SourceAlpha" type="matrix" values="0 0 0 0 0 0 0 0 0 0 0 0 0 0 0 0 0 0 127 0" result="hardAlpha"/>
<feOffset dy="4"/>
<feGaussianBlur stdDeviation="2"/>
<feComposite in2="hardAlpha" operator="out"/>
<feColorMatrix type="matrix" values="0 0 0 0 0 0 0 0 0 0 0 0 0 0 0 0 0 0 0.25 0"/>
<feBlend mode="normal" in2="BackgroundImageFix" result="effect1_dropShadow_403_17"/>
<feBlend mode="normal" in="SourceGraphic" in2="effect1_dropShadow_403_17" result="shape"/>
</filter>
</defs>
</svg>
